<svg xmlns="http://www.w3.org/2000/svg" width="21" height="20" viewBox="0 0 21 20" fill="none">
  <path d="M5.92679 4.9846L6.23985 4.98585L6.23994 4.98585C6.33843 4.98631 6.43586 5.00617 6.52668 5.04428C6.6175 5.0824 6.69992 5.13803 6.76924 5.208C6.83856 5.27797 6.89342 5.3609 6.93068 5.45207C6.96795 5.54324 6.98689 5.64086 6.98643 5.73935C6.98598 5.83784 6.96612 5.93528 6.92801 6.0261C6.88989 6.11691 6.83426 6.19934 6.76429 6.26866C6.69432 6.33797 6.61138 6.39283 6.52021 6.4301C6.42904 6.46737 6.33143 6.48631 6.23293 6.48585L4.11126 6.47585L4.11119 6.47585C3.91349 6.4748 3.7242 6.39573 3.5845 6.25583C3.44483 6.11598 3.36601 5.92664 3.36519 5.72899C3.36519 5.72898 3.36519 5.72897 3.36519 5.72897C3.36519 5.72893 3.36519 5.72889 3.36519 5.72885L3.35435 3.60902C3.35435 3.60901 3.35435 3.609 3.35435 3.60899C3.35383 3.51051 3.37271 3.41289 3.40991 3.3217C3.44712 3.23051 3.50192 3.14753 3.5712 3.07752C3.64047 3.0075 3.72285 2.95182 3.81365 2.91364C3.90444 2.87546 4.00186 2.85554 4.10035 2.85502C4.19884 2.85449 4.29647 2.87337 4.38767 2.91058C4.47886 2.94778 4.56184 3.00259 4.63185 3.07186C4.70187 3.14113 4.75755 3.22352 4.79573 3.31431C4.83391 3.4051 4.85383 3.50253 4.85435 3.60102L4.85612 3.93162C8.08202 0.930824 13.1473 1.0329 16.3069 4.1933C19.5382 7.42456 19.5733 12.6479 16.3602 15.8601L5.92679 4.9846ZM5.92679 4.9846C8.55802 2.5868 12.6662 2.67361 15.2468 5.25342C17.9021 7.90959 17.9163 12.1829 15.3001 14.7999C15.3001 14.8 15.3001 14.8 15.3001 14.8M5.92679 4.9846L15.3001 14.8M15.3001 14.8C12.6831 17.4162 8.40973 17.402 5.75356 14.7466L5.75338 14.7464C5.00809 14.0045 4.44501 13.0998 4.10836 12.1035C3.77172 11.1072 3.67069 10.0464 3.8132 9.00446L3.8132 9.00443C3.84012 8.80725 3.78761 8.60747 3.66722 8.44901C3.54683 8.29056 3.36843 8.18642 3.17126 8.1595C2.97409 8.13258 2.7743 8.18509 2.61585 8.30548C2.45739 8.42587 2.35325 8.60427 2.32634 8.80144C2.15275 10.0727 2.27617 11.3668 2.68691 12.5823C3.09763 13.7977 3.78445 14.9014 4.69346 15.8067L15.3001 14.8ZM4.69356 15.8068C7.92485 19.038 13.1481 19.0722 16.3602 15.8601L4.69356 15.8068Z" fill="black" stroke="black" stroke-width="0.25"/>
  <path d="M10.5 6.04175C10.6658 6.04175 10.8247 6.1076 10.9419 6.22481C11.0592 6.34202 11.125 6.50099 11.125 6.66675V9.74175L13.025 11.6417C13.0864 11.699 13.1357 11.768 13.1698 11.8446C13.204 11.9213 13.2223 12.0041 13.2238 12.088C13.2253 12.1719 13.2099 12.2553 13.1784 12.3331C13.147 12.4109 13.1002 12.4816 13.0409 12.5409C12.9815 12.6003 12.9108 12.6471 12.833 12.6785C12.7552 12.71 12.6718 12.7254 12.5879 12.7239C12.504 12.7224 12.4212 12.7041 12.3446 12.6699C12.2679 12.6357 12.1989 12.5865 12.1417 12.5251L10.1192 10.5034C10.0417 10.426 9.98023 10.334 9.93833 10.2327C9.89644 10.1315 9.87491 10.023 9.875 9.91341V6.66675C9.875 6.50099 9.94085 6.34202 10.0581 6.22481C10.1753 6.1076 10.3342 6.04175 10.5 6.04175Z" fill="black"/>
</svg>