<svg xmlns="http://www.w3.org/2000/svg" width="28" height="28" viewBox="0 0 28 28" fill="none">
  <path d="M14.0973 27.3333C10.3702 27.3333 7.2027 26.0293 4.59466 23.4212C1.98663 20.8121 0.682617 17.6445 0.682617 13.9186C0.682617 10.5225 1.78933 7.57685 4.00274 5.08172C6.2184 2.58883 8.95946 1.11713 12.2259 0.666626C12.3165 0.666626 12.4053 0.66998 12.4925 0.676687C12.5797 0.683394 12.6653 0.692896 12.7491 0.705193C12.1834 1.49442 11.7357 2.37196 11.406 3.33782C11.0762 4.30479 10.9113 5.31704 10.9113 6.37456C10.9113 9.35596 11.9543 11.8897 14.0403 13.9756C16.1274 16.0627 18.6616 17.1063 21.643 17.1063C22.7072 17.1063 23.7206 16.9414 24.6831 16.6116C25.6467 16.2818 26.512 15.8341 27.2788 15.2685C27.2923 15.3523 27.3023 15.4378 27.309 15.525C27.3146 15.6122 27.3174 15.7005 27.3174 15.79C26.8881 19.0576 25.4265 21.7986 22.9325 24.0131C20.4385 26.2277 17.4945 27.3344 14.0973 27.3333ZM14.0956 25.6564C16.5549 25.6564 18.7628 24.9784 20.7191 23.6224C22.6754 22.2664 24.1007 20.4991 24.995 18.3203C24.436 18.46 23.8771 18.5718 23.3182 18.6557C22.7592 18.7395 22.2003 18.7814 21.6413 18.7814C18.2049 18.7814 15.2778 17.573 12.8598 15.1561C10.4418 12.7393 9.23334 9.8115 9.23446 6.37288C9.23446 5.81394 9.27638 5.25499 9.36022 4.69605C9.44406 4.13711 9.55585 3.57816 9.69558 3.01922C7.5157 3.91353 5.74777 5.33884 4.39177 7.29514C3.03577 9.25144 2.35833 11.4593 2.35945 13.9186C2.35945 17.1605 3.50528 19.9273 5.79695 22.2189C8.08862 24.5106 10.8537 25.6564 14.0956 25.6564Z" fill="black"/>
</svg>